<?xml version="1.0" encoding="UTF-8"?>
<svg xmlns="http://www.w3.org/2000/svg" width="128" height="128" viewBox="0 0 24 24">
  <defs>
    <linearGradient id="g" x1="0" x2="1" y1="0" y2="1">
      <stop offset="0%" stop-color="#4f46e5"/>
      <stop offset="100%" stop-color="#06b6d4"/>
    </linearGradient>
  </defs>
  <rect rx="4" ry="4" width="24" height="24" fill="url(#g)"/>
  <g transform="translate(3,3) scale(0.75)" fill="#0f172a">
    <path d="M12 3a9 9 0 100 18 9 9 0 000-18zm-4 9a1 1 0 110-2 1 1 0 010 2zm8 0a1 1 0 110-2 1 1 0 010 2z" opacity="0.95"/>
    <path d="M7 14c.6-.5 2-1 5-1s4.4.5 5 1c.3.2.2.6 0 .8-.8.6-2.8 1.2-5 1.2s-4.2-.6-5-1.2c-.2-.2-.3-.6 0-.8z" opacity="0.9"/>
  </g>
</svg>
